<svg width="25" height="24" viewBox="0 0 25 24" fill="none" xmlns="http://www.w3.org/2000/svg">
  <path fill-rule="evenodd" clip-rule="evenodd" d="M11.6342 6.64947C13.0493 7.99138 15.0662 9.69101 17.4856 11.1426L17.4856 12.8576C15.0662 14.3092 13.0493 16.0088 11.6342 17.3507C10.9281 18.0203 10.3755 18.5973 10.0013 19.0047C9.81434 19.2083 9.67217 19.3692 9.57794 19.4778C9.53083 19.5321 9.49573 19.5732 9.47302 19.6001L9.44831 19.6295L9.44302 19.6358L9.4423 19.6367C9.44239 19.6366 9.44249 19.6365 8.67111 19.0001C7.89973 18.3637 7.89986 18.3636 7.9 18.3634L7.90035 18.363L7.90127 18.3619L7.90402 18.3585L7.91315 18.3476L7.94576 18.3088C7.97383 18.2756 8.0145 18.2279 8.06739 18.167C8.17316 18.0451 8.32786 17.8701 8.52837 17.6518C8.92922 17.2153 9.51409 16.6049 10.258 15.8995C11.4754 14.745 13.1285 13.3269 15.1068 12.0001C13.1285 10.6733 11.4754 9.25517 10.258 8.10072C9.51409 7.3953 8.92922 6.78485 8.52837 6.34843C8.32786 6.13013 8.17316 5.95512 8.06739 5.83324C8.0145 5.77229 7.97383 5.7246 7.94576 5.6914L7.91315 5.65262L7.90402 5.64166L7.90127 5.63833L7.90035 5.63722L7.9 5.6368C7.89986 5.63662 7.89973 5.63647 8.67111 5.00009C9.44249 4.36372 9.44239 4.3636 9.44229 4.36348L9.44302 4.36435L9.4483 4.3707L9.47302 4.40009C9.49573 4.42695 9.53083 4.46813 9.57794 4.52242C9.67217 4.63101 9.81434 4.79193 10.0013 4.99551C10.3755 5.40284 10.9281 5.97989 11.6342 6.64947ZM9.44216 4.36332C9.44211 4.36326 9.44212 4.36327 9.44217 4.36334L9.44216 4.36332Z" fill="currentColor"></path>
</svg>
<svg width="25" height="24" viewBox="0 0 25 24" fill="none" xmlns="http://www.w3.org/2000/svg">
  <path fill-rule="evenodd" clip-rule="evenodd" d="M11.6342 6.64947C13.0493 7.99138 15.0662 9.69101 17.4856 11.1426L17.4856 12.8576C15.0662 14.3092 13.0493 16.0088 11.6342 17.3507C10.9281 18.0203 10.3755 18.5973 10.0013 19.0047C9.81434 19.2083 9.67217 19.3692 9.57794 19.4778C9.53083 19.5321 9.49573 19.5732 9.47302 19.6001L9.44831 19.6295L9.44302 19.6358L9.4423 19.6367C9.44239 19.6366 9.44249 19.6365 8.67111 19.0001C7.89973 18.3637 7.89986 18.3636 7.9 18.3634L7.90035 18.363L7.90127 18.3619L7.90402 18.3585L7.91315 18.3476L7.94576 18.3088C7.97383 18.2756 8.0145 18.2279 8.06739 18.167C8.17316 18.0451 8.32786 17.8701 8.52837 17.6518C8.92922 17.2153 9.51409 16.6049 10.258 15.8995C11.4754 14.745 13.1285 13.3269 15.1068 12.0001C13.1285 10.6733 11.4754 9.25517 10.258 8.10072C9.51409 7.3953 8.92922 6.78485 8.52837 6.34843C8.32786 6.13013 8.17316 5.95512 8.06739 5.83324C8.0145 5.77229 7.97383 5.7246 7.94576 5.6914L7.91315 5.65262L7.90402 5.64166L7.90127 5.63833L7.90035 5.63722L7.9 5.6368C7.89986 5.63662 7.89973 5.63647 8.67111 5.00009C9.44249 4.36372 9.44239 4.3636 9.44229 4.36348L9.44302 4.36435L9.4483 4.3707L9.47302 4.40009C9.49573 4.42695 9.53083 4.46813 9.57794 4.52242C9.67217 4.63101 9.81434 4.79193 10.0013 4.99551C10.3755 5.40284 10.9281 5.97989 11.6342 6.64947ZM9.44216 4.36332C9.44211 4.36326 9.44212 4.36327 9.44217 4.36334L9.44216 4.36332Z" fill="currentColor"></path>
</svg>
