<svg width="76" height="17" viewBox="0 0 76 17" fill="none" xmlns="http://www.w3.org/2000/svg">
<path d="M8.67385 16.8027C13.2636 16.8027 16.8769 13.2871 16.8769 8.79488C16.8769 4.35158 13.2636 0.738281 8.67385 0.738281C4.23045 0.738281 0.617188 4.35158 0.617188 8.79488C0.617188 13.2871 4.23045 16.8027 8.67385 16.8027Z" fill="black"/>
<path d="M37.8242 16.8027C42.3164 16.8027 45.8808 13.2871 45.8808 8.79488C45.8808 4.35158 42.3164 0.738281 37.8242 0.738281C33.3808 0.738281 29.8164 4.35158 29.8164 8.79488C29.8164 13.2871 33.3808 16.8027 37.8242 16.8027Z" fill="black"/>
<path d="M67.0234 16.8027C71.4667 16.8027 75.08 13.2871 75.08 8.79488C75.08 4.35158 71.4667 0.738281 67.0234 0.738281C62.4335 0.738281 58.8203 4.35158 58.8203 8.79488C58.8203 13.2871 62.4335 16.8027 67.0234 16.8027Z" fill="black"/>
</svg>
