<svg width="95" height="86" viewBox="0 0 95 86" fill="none" xmlns="http://www.w3.org/2000/svg">
<path d="M56.4453 85.498H66.4063C69.3848 85.498 71.0938 83.789 71.0938 80.8593V4.6386C71.0938 1.7089 69.3848 0 66.4063 0H56.4453C53.4668 0 51.8067 1.7089 51.8067 4.6386V80.8593C51.8067 83.789 53.4668 85.498 56.4453 85.498ZM26.3184 85.498H42.334C45.3125 85.498 47.0215 83.789 47.0215 80.8593V28.8574C47.0215 25.9277 45.3125 24.2187 42.334 24.2187H26.3184C23.3887 24.2187 21.6797 25.9277 21.6797 28.8574V80.8593C21.6797 83.789 23.3887 85.498 26.3184 85.498ZM4.63868 85.498H12.2559C15.1856 85.498 16.8946 83.789 16.8946 80.8593V15.7226C16.8946 12.7929 15.1856 11.0839 12.2559 11.0839H4.63868C1.70898 11.0839 0 12.7929 0 15.7226V80.8593C0 83.789 1.70898 85.498 4.63868 85.498ZM83.3985 85.6445L89.9903 84.6679C92.8714 84.2285 94.3364 82.4218 93.9944 79.4921L86.1817 14.8925C85.8887 11.9628 84.0332 10.4003 81.0547 10.8398L74.4629 11.8164C71.5821 12.2558 70.1172 14.0625 70.459 16.9921L78.2715 81.5918C78.6133 84.5214 80.4199 86.0839 83.3985 85.6445ZM30.4688 38.7207C28.9063 38.7207 27.7344 37.5488 27.7344 36.0351C27.7344 34.5703 28.9063 33.3984 30.4688 33.3984H38.3301C39.8438 33.3984 40.9668 34.5703 40.9668 36.0351C40.9668 37.5488 39.8438 38.7207 38.3301 38.7207H30.4688ZM30.4688 76.3671C28.9063 76.3671 27.7344 75.1464 27.7344 73.6816C27.7344 72.2167 28.9063 71.0449 30.4688 71.0449H38.3301C39.8438 71.0449 40.9668 72.2167 40.9668 73.6816C40.9668 75.1464 39.8438 76.3671 38.3301 76.3671H30.4688Z" fill="black"/>
</svg>
