<svg width="48" height="78" viewBox="0 0 48 78" fill="none" xmlns="http://www.w3.org/2000/svg">
<path d="M47.7051 17.7559V3.15634C47.7051 1.05664 45.9961 -0.359359 43.8965 0.0801407L23.7793 4.47464C21.1426 5.06064 19.7266 6.42774 19.7266 8.72274V51.6914C19.9707 53.4492 19.1406 54.5723 17.5782 54.8652L11.4746 56.1348C3.66208 57.7949 0 61.7988 0 67.7559C0 73.7618 4.63868 77.961 11.1328 77.961C16.8457 77.961 25.4395 73.7129 25.4395 62.3848V27.0332C25.4395 25.0801 25.7813 24.7871 27.4903 24.4453L45.5078 20.4414C46.8262 20.1484 47.7051 19.1231 47.7051 17.7559Z" fill="black"/>
</svg>
