<svg width="60" height="82" viewBox="0 0 60 82" fill="none" xmlns="http://www.w3.org/2000/svg">
<path d="M59.1387 43.8223C59.1387 41.6738 57.5273 40.0137 55.3301 40.0137C54.3047 40.0137 53.2793 40.3555 52.5957 41.0879L45.6133 47.8262L30.8184 64.2812L33.3086 65.1602L33.7969 53.1484V4.46677C33.7969 2.17187 32.1367 0.609375 29.8418 0.609375C27.5469 0.609375 25.8867 2.17187 25.8867 4.46677V53.1484L26.375 65.1602L28.9141 64.2812L14.0703 47.8262L7.0879 41.0879C6.4043 40.3555 5.3789 40.0137 4.3535 40.0137C2.1563 40.0137 0.544922 41.6738 0.544922 43.8223C0.544922 44.8965 0.935502 45.8242 1.7656 46.7031L26.9121 71.8984C27.7422 72.8261 28.7676 73.2656 29.8418 73.2656C30.916 73.2656 31.9414 72.8261 32.7715 71.8984L57.918 46.7031C58.7481 45.8242 59.1387 44.8965 59.1387 43.8223ZM59.1387 77.2207C59.1387 74.9258 57.5762 73.2656 55.3301 73.2656H4.4512C2.1563 73.2656 0.544922 74.9258 0.544922 77.2207C0.544922 79.5156 2.1563 81.1269 4.4512 81.1269H55.3301C57.5762 81.1269 59.1387 79.5156 59.1387 77.2207Z" fill="black"/>
</svg>
