<svg width="62" height="91" viewBox="0 0 62 91" fill="none" xmlns="http://www.w3.org/2000/svg">
<path d="M0.396484 56.7578C0.396484 60.2734 2.74019 62.6172 6.40229 62.6172H27.0566V79.0235C27.0566 85.5176 29.791 90.8887 30.8164 90.8887C31.8906 90.8887 34.625 85.5176 34.625 79.0235V62.6172H55.2305C58.9414 62.6172 61.2851 60.2734 61.2851 56.7578C61.2851 48.7012 54.791 40.0586 43.8047 36.0059L42.5351 18.5742C48.5898 15.2051 53.1797 11.5918 55.1328 9.10162C56.2558 7.68552 56.7441 6.31842 56.7441 5.04882C56.7441 2.55862 54.791 0.703125 51.959 0.703125H9.72258C6.84178 0.703125 4.93749 2.55862 4.93749 5.04882C4.93749 6.31842 5.42579 7.68552 6.49999 9.10162C8.45309 11.5918 13.043 15.2051 19.0976 18.5742L17.8769 36.0059C6.89058 40.0586 0.396484 48.7012 0.396484 56.7578Z" fill="black"/>
</svg>
