<svg width="76" height="77" viewBox="0 0 76 77" fill="none" xmlns="http://www.w3.org/2000/svg">
<path d="M0.152344 31.7637C0.152344 48.9023 14.0684 62.7695 31.2071 62.7695C37.7988 62.7695 43.8535 60.7188 48.8828 57.2031L67.0469 75.416C68.0723 76.3926 69.3418 76.832 70.6602 76.832C73.4922 76.832 75.543 74.6836 75.543 71.8515C75.543 70.4844 75.0059 69.2637 74.1758 68.3359L56.1094 50.2207C59.9668 45.0449 62.2129 38.6973 62.2129 31.7637C62.2129 14.625 48.3457 0.708984 31.2071 0.708984C14.0684 0.708984 0.152344 14.625 0.152344 31.7637ZM7.67188 31.7637C7.67188 18.7266 18.1699 8.22849 31.2071 8.22849C44.1953 8.22849 54.7422 18.7266 54.7422 31.7637C54.7422 44.752 44.1953 55.2988 31.2071 55.2988C18.1699 55.2988 7.67188 44.752 7.67188 31.7637Z" fill="black"/>
</svg>
