<svg width="78" height="91" viewBox="0 0 78 91" fill="none" xmlns="http://www.w3.org/2000/svg">
<path d="M19.7226 0.703125C16.8418 0.703125 14.9375 2.55862 14.9375 5.04882C14.9375 6.31842 15.4258 7.68552 16.5 9.05272C18.4531 11.5918 23.043 15.2051 29.0976 18.5742L28.8047 23.0664L67.8672 62.1289C70.0156 61.25 71.2851 59.3457 71.2851 56.7578C71.2851 48.7012 64.791 40.0586 53.8047 36.0059L52.5351 18.5742C58.5898 15.2051 63.1797 11.5918 65.1328 9.10162C66.2558 7.68552 66.7441 6.31842 66.7441 5.04882C66.7441 2.55862 64.791 0.703125 61.959 0.703125H19.7226ZM10.3965 56.7578C10.3965 60.2734 12.7402 62.6172 16.4023 62.6172H37.0566V79.0235C37.0566 85.5176 39.791 90.8887 40.8164 90.8887C41.8906 90.8887 44.625 85.5176 44.625 79.0235V63.252H45.1621L21.2851 39.3262C14.3515 43.8672 10.3965 50.5078 10.3965 56.7578Z" fill="black"/>
<path d="M1.60644 12.4707L71.5771 82.3438C72.8955 83.6621 75.0439 83.6621 76.3134 82.3438C77.583 81.0254 77.6318 78.9258 76.3134 77.6074L6.39163 7.73441C5.12203 6.41601 2.9248 6.41601 1.60644 7.73441C0.336914 9.00391 0.336914 11.2012 1.60644 12.4707Z" fill="black"/>
</svg>
