<svg width="120" height="658" viewBox="0 0 120 658" fill="none" xmlns="http://www.w3.org/2000/svg">
<path d="M26.375 616.438L58.5625 598.125L26.5 581.75C26.0625 581.562 25.8125 581.188 25.8125 580.75V543.875C25.8125 543.688 25.875 543.5 26 543.312C26.25 542.938 26.5625 542.812 26.875 542.812C27.0625 542.812 27.25 542.812 27.5 542.938L89.875 579.812C99.4375 585.25 106.688 591.938 111.688 600C116.75 607.938 119.312 618.062 119.312 630.438C119.312 634.75 119 638.875 118.312 642.688C117.625 646.375 116.625 649.875 115.312 653.062C115.062 653.5 114.75 653.75 114.312 653.75C114.188 653.75 114 653.75 113.875 653.688L95.5 646.75C95 646.5 94.75 646.188 94.75 645.688L94.8125 645.375C95.5625 643.188 96.125 641.062 96.5 638.938C96.875 636.875 97.0625 634.875 97.0625 632.875C97.0625 629.312 96.375 626.062 95.0625 623.188C93.8125 620.5 92 618.188 89.5625 616.125L27.625 657.5C27.4375 657.688 27.1875 657.75 26.9375 657.75C26.1875 657.625 25.8125 657.25 25.8125 656.625V617.375C25.875 617 26.0625 616.688 26.375 616.438ZM67.25 505.375C69.625 501.688 70.8125 497.25 70.8125 492.062C70.8125 489.375 70.5625 486.938 69.9375 484.688C69.3125 482.438 68.4375 480.438 67.25 478.625C66 476.875 64.6875 475.562 63.3125 474.688L63.25 474.625C61.875 473.812 60.375 473.375 58.8125 473.375C57.25 473.375 55.8125 473.812 54.4375 474.625C53.0625 475.5 51.8125 476.812 50.625 478.625C49.4375 480.438 48.5 482.438 47.9375 484.688C47.3125 486.938 47 489.375 47 492.062C47 497.375 48.1875 501.75 50.5625 505.312V505.375C52.9375 508.875 55.625 510.625 58.8125 510.625C60.375 510.625 61.875 510.188 63.25 509.375C64.6875 508.5 66 507.188 67.25 505.375ZM25.8125 483.75C26.75 479.75 28.0625 476.062 29.8125 472.688H26.9375C26.1875 472.562 25.8125 472.188 25.8125 471.562V439.438C25.9375 438.688 26.3125 438.375 26.9375 438.375H90.9375C91.625 438.5 92 438.812 92 439.438V471.562C91.875 472.312 91.5 472.688 90.9375 472.688H88.1875C89.875 476.25 91.1875 480 92.0625 484.062C93.125 488.625 93.625 493.5 93.625 498.688C93.625 505.688 92.8125 512 91.1875 517.75C89.5 523.5 87.0625 528.688 83.75 533.188C80.375 537.75 76.5625 541.188 72.4375 543.438C68.25 545.75 63.625 546.875 58.6875 546.875C53.75 546.875 49.1875 545.688 45.0625 543.375C40.9375 541.062 37.25 537.625 34 533.062C30.75 528.5 28.3125 523.312 26.6875 517.562C25.0625 511.875 24.25 505.562 24.25 498.688C24.25 493.312 24.75 488.312 25.8125 483.75ZM58.125 385.125H90.9375C91.625 385.25 92 385.625 92 386.25V420.25C91.875 421 91.5 421.375 90.9375 421.375H3C2.25 421.25 1.875 420.875 1.875 420.25V386.938C2 386.188 2.375 385.812 3 385.812H33.0625C30.6875 383.25 28.6875 379.688 27.0625 375.125C25.125 369.812 24.125 363.625 24.125 356.688C24.125 351.5 24.6875 346.625 25.875 342.188C27.0625 337.812 28.8125 333.75 31.125 330.125L31.1875 330.062C33.5 326.25 36.375 323.375 39.8125 321.5C43.25 319.562 47.1875 318.562 51.5625 318.562H90.9375C91.625 318.688 92 319.062 92 319.688V353.938C91.875 354.625 91.5 355 90.9375 355H57.4375C54.125 355 51.5625 356.188 49.75 358.562C47.8125 361 46.875 364.5 46.875 369C46.875 373.938 47.9375 377.875 50.125 380.812C52.125 383.688 54.8125 385.125 58.125 385.125ZM67 268.062C69.3125 264.562 70.5 260.312 70.5 255.188C70.5 249.875 69.3125 245.562 67.0625 242.062C64.8125 238.812 62.125 237.125 58.8125 237.125C55.6875 237.125 53 238.812 50.75 242.188C48.5 245.625 47.375 249.938 47.375 255.188C47.375 260.25 48.5 264.5 50.8125 268C53 271.312 55.6875 273 58.8125 273C62.0625 273 64.8125 271.375 67 268.062ZM72.625 204.75C76.75 207.25 80.5 211.062 83.875 216.188C87.25 221.188 89.75 227 91.375 233.5C93.0625 239.938 93.875 247.188 93.875 255.188C93.875 263.188 93.0625 270.375 91.375 276.875C89.75 283.312 87.25 289.062 83.9375 294.125L83.875 294.188C80.5 299.188 76.75 302.938 72.625 305.438C68.5 308 63.875 309.25 58.9375 309.25C53.9375 309.25 49.375 308 45.1875 305.438C41.0625 302.938 37.3125 299.188 34 294.188C30.625 289.125 28.125 283.312 26.4375 276.875C24.8125 270.375 24 263.188 24 255.188C24 247.188 24.8125 239.938 26.4375 233.5C28.125 227 30.625 221.188 33.9375 216.188C37.3125 211.062 41.0625 207.25 45.1875 204.75C49.375 202.188 53.9375 200.875 58.9375 200.875C63.875 200.875 68.5 202.188 72.625 204.75ZM67 151.812C69.3125 148.312 70.5 144.062 70.5 138.938C70.5 133.625 69.3125 129.312 67.0625 125.812C64.8125 122.562 62.125 120.875 58.8125 120.875C55.6875 120.875 53 122.562 50.75 125.938C48.5 129.375 47.375 133.688 47.375 138.938C47.375 144 48.5 148.25 50.8125 151.75C53 155.062 55.6875 156.75 58.8125 156.75C62.0625 156.75 64.8125 155.125 67 151.812ZM72.625 88.5C76.75 91 80.5 94.8125 83.875 99.9375C87.25 104.938 89.75 110.75 91.375 117.25C93.0625 123.688 93.875 130.938 93.875 138.938C93.875 146.938 93.0625 154.125 91.375 160.625C89.75 167.062 87.25 172.812 83.9375 177.875L83.875 177.938C80.5 182.938 76.75 186.688 72.625 189.188C68.5 191.75 63.875 193 58.9375 193C53.9375 193 49.375 191.75 45.1875 189.188C41.0625 186.688 37.3125 182.938 34 177.938C30.625 172.875 28.125 167.062 26.4375 160.625C24.8125 154.125 24 146.938 24 138.938C24 130.938 24.8125 123.688 26.4375 117.25C28.125 110.75 30.625 104.938 33.9375 99.9375C37.3125 94.8125 41.0625 91 45.1875 88.5C49.375 85.9375 53.9375 84.625 58.9375 84.625C63.875 84.625 68.5 85.9375 72.625 88.5Z" fill="#FFD52E"/>
<path d="M89.9228 35.4698C91.5048 39.8454 91.7624 44.5352 90.7545 49.5601C89.6852 54.8914 87.6699 58.9646 84.6963 61.841C81.5928 64.7365 78.2107 65.562 74.6212 64.2771C71.1495 63.0344 68.6471 60.1027 67.0677 55.3995C65.5692 50.9224 65.3484 46.0488 66.3932 40.84C66.8725 38.4501 67.6215 36.2881 68.5813 34.3329C69.6 32.3987 70.8759 30.7537 72.3504 29.3768C73.8372 27.9386 75.3556 26.9715 77.0111 26.5789C78.6788 26.125 80.3537 26.2648 82.119 26.8967C85.6496 28.1604 88.2354 30.9907 89.9228 35.4698ZM8.62039 0.916418L65.8669 23.9691C66.5484 24.3445 66.8277 24.8385 66.7048 25.4513L60.7681 55.0493C60.6452 55.6621 60.2306 55.8421 59.5465 55.7942L1.35619 37.1326C0.67465 36.7573 0.395335 36.2632 0.505958 35.7117L7.35225 1.57903C7.60514 0.947086 8.01966 0.767067 8.62039 0.916418Z" fill="#FFD52E"/>
</svg>
